<mxfile host="app.diagrams.net" agent="Mozilla/5.0 (Macintosh; Intel Mac OS X 10_15_7) AppleWebKit/605.1.15 (KHTML, like Gecko) Version/17.4 Safari/605.1.15" version="25.0.1">
  <diagram name="Page-1" id="DrAJP2G5X1NqpNw8yNiz">
    <mxGraphModel dx="1023" dy="571" grid="1" gridSize="10" guides="1" tooltips="1" connect="1" arrows="1" fold="1" page="1" pageScale="1" pageWidth="850" pageHeight="1100" math="0" shadow="0">
      <root>
        <mxCell id="0" />
        <mxCell id="1" parent="0" />
        <mxCell id="uMsO0RnnuEajStrXwZzo-1" value="" style="ellipse;whiteSpace=wrap;html=1;aspect=fixed;" vertex="1" parent="1">
          <mxGeometry x="380" y="260" width="80" height="80" as="geometry" />
        </mxCell>
        <mxCell id="uMsO0RnnuEajStrXwZzo-2" value="" style="ellipse;whiteSpace=wrap;html=1;" vertex="1" parent="1">
          <mxGeometry x="360" y="260" width="120" height="80" as="geometry" />
        </mxCell>
        <mxCell id="uMsO0RnnuEajStrXwZzo-3" value="" style="shape=document;whiteSpace=wrap;html=1;boundedLbl=1;" vertex="1" parent="1">
          <mxGeometry x="130" y="190" width="120" height="80" as="geometry" />
        </mxCell>
        <mxCell id="uMsO0RnnuEajStrXwZzo-4" value="" style="rhombus;whiteSpace=wrap;html=1;" vertex="1" parent="1">
          <mxGeometry x="460" y="100" width="80" height="80" as="geometry" />
        </mxCell>
      </root>
    </mxGraphModel>
  </diagram>
</mxfile>
